<svg xmlns="http://www.w3.org/2000/svg" xml:space="preserve" id="Layer_1" x="0" y="0" style="enable-background:new 0 0 154 56" version="1.1" viewBox="0 0 154 56"><style>.st1{fill:#202125}</style><path d="M83.5 21.6c-6.4 0-9.9 10.8-9.9 20.7 0 5.2 2 7.8 5.1 7.8 4.2 0 8.1-7.3 9.5-16.1v-.1c-2.9-2.3-3.3-5.3-3.2-7.7 0-1.5.2-2.9.7-4.3-.1 0-.1-.1-.2-.1-.6-.1-1.3-.2-2-.2z" style="fill:none"/><path d="M149.3 23.7c2.5-.1 4.2-.8 4.7-3.2.3-1.4-.6-2.3-2.2-2.4 0 0-4.6-.2-10-.5 0 0 1.1-5.9 1.6-8.3.3-1.2-.4-2.4-1.9-2.7-1.5-.4-4.9-.4-6-.3-1 .1-1.9.7-2.1 1.7-.5 2.5-1.1 5.5-1.8 9.3-2 0-3.9-.1-5.2 0-1.2 0-1.8.7-2.1 1.7-.3 1-.5 2.5-.5 4-.1 1.2 1.2 1.7 2.5 1.6 0 0 1.6-.1 4.1-.2-.5 2.2-1.4 8-1.7 11.6-2.2 7.5-6.9 13.1-10.9 13.1-2.5 0-3.9-1.5-3.9-5.9 0-6.1 1.4-13.8 3.5-21.6 2.9-7 4.6-14.7 4.6-18.2 0-1.3-.4-2.8-2-3.1-2.8-.6-5.6-.5-7.5.1-1.7.5-2 2.3-2.2 3.3-1 4.6-2.6 12.7-3.7 19.8-2.5 3-5.4 5.1-8.5 5.7-.3-5.5-2.3-9.2-5.4-11.3-.9-.6-1.9-1.1-3-1.4-1.5-.5-3.2-.7-5.1-.7-13.2 0-21.7 11.8-21.7 25 0 10.7 5.9 15.2 14.4 15.2 10.1 0 17.5-7.1 20.3-20.2 2.8-.6 5.3-2 7.5-3.9 0 0-1.6 8.1-1.6 12.9 0 7.2 3.1 11.2 10.4 11.2 6 0 11.2-4.2 14.5-9.4.9 6.7 4.4 9.4 10.1 9.4 5.2 0 10.3-3.3 13.8-9.3.7-1.2 1.2-2.2.8-2.8-1-1.2-3-1.8-3.5-.8-2.3 4.3-4.9 6-7.6 6-2.2 0-3.9-1.3-3.9-5.1 0-5.4 3.1-20.1 3.1-20.1 2.3 0 5.3-.1 8.1-.2zM88.1 34.1c-1.4 8.8-5.3 16.1-9.5 16.1-3 0-5.1-2.6-5.1-7.8 0-10 3.6-20.7 9.9-20.7.7 0 1.4.1 1.9.3.1 0 .1.1.2.1-.5 1.4-.6 2.8-.7 4.3 0 2.3.4 5.3 3.3 7.7 0-.1 0-.1 0 0z" class="st1"/><path d="M130.3 24.5c0-.1 0-.1 0 0-.5 0-.4 0 0 0zM57.9 0c-1.8 0-3.3.1-4.1.2-1.5.2-2.1 1.6-1.9 3.1 1.6 20.9-3 45.1-8.2 45.1-3.9 0-5-11.3-5-21.4 0-6 .3-11.7.5-16.8.1-1.9-.6-2.2-2-2.4-2.1-.3-3.5-.2-5.6.2-1.6.3-2 1.6-3.6 5.5C19.8 33 11.9 48.6 11.9 48.6c-2.1-15.7.6-30.9 2.9-42 .3-1.5-.4-2.4-1.7-2.4-2.4 0-6 .1-7.6 1.2C4 6.4 3.4 7.5 3 9.7c-2.5 12.7-4.2 28.7-1.6 41 .6 2.7 1.2 3.3 2.3 4 1.1.7 6 1.3 7.8 1.3 2.1 0 4.1-.6 5.7-3.4 3.4-5.9 6.2-11.8 11.4-23.1.5 14.7 2.6 26.3 13 26.3C55.2 55.9 64 21.6 64 5.1 64 .7 61.9 0 57.9 0z" class="st1"/></svg>